<?xml version="1.0" encoding="UTF-8"?>
<svg xmlns="http://www.w3.org/2000/svg" width="512" height="512" viewBox="0 0 512 512" role="img" aria-label="Anime monitor icon">
  <path d="M 3 78 L 3 79 L 2 80 L 2 82 L 1 83 L 1 85 L 0 86 L 0 362 L 1 363 L 1 366 L 2 367 L 2 368 L 3 369 L 3 370 L 4 371 L 4 372 L 9 377 L 10 377 L 12 379 L 13 379 L 14 380 L 16 380 L 17 381 L 20 381 L 21 382 L 211 382 L 212 383 L 212 388 L 211 389 L 211 394 L 210 395 L 210 400 L 209 401 L 209 403 L 208 404 L 143 404 L 142 405 L 136 405 L 135 406 L 133 406 L 132 407 L 131 407 L 130 408 L 129 408 L 121 416 L 121 417 L 120 418 L 120 419 L 119 420 L 119 422 L 118 423 L 118 425 L 117 426 L 117 428 L 116 429 L 116 437 L 117 438 L 117 439 L 121 443 L 122 443 L 123 444 L 388 444 L 389 443 L 390 443 L 394 439 L 394 438 L 395 437 L 395 429 L 394 428 L 394 426 L 393 425 L 393 423 L 392 422 L 392 420 L 391 419 L 391 418 L 390 417 L 390 416 L 382 408 L 381 408 L 380 407 L 379 407 L 378 406 L 376 406 L 375 405 L 369 405 L 368 404 L 343 404 L 342 405 L 339 405 L 336 408 L 336 410 L 335 411 L 335 412 L 336 413 L 336 415 L 339 418 L 368 418 L 369 419 L 372 419 L 373 420 L 374 420 L 378 424 L 378 425 L 379 426 L 379 427 L 380 428 L 380 429 L 379 430 L 132 430 L 131 429 L 131 428 L 132 427 L 132 426 L 133 425 L 133 424 L 137 420 L 138 420 L 139 419 L 142 419 L 143 418 L 311 418 L 313 416 L 313 415 L 314 414 L 314 409 L 313 408 L 313 407 L 311 405 L 308 405 L 307 404 L 303 404 L 302 403 L 302 401 L 301 400 L 301 395 L 300 394 L 300 389 L 299 388 L 299 383 L 300 382 L 490 382 L 491 381 L 494 381 L 495 380 L 497 380 L 498 379 L 499 379 L 501 377 L 502 377 L 506 373 L 506 372 L 508 370 L 508 369 L 509 368 L 509 367 L 510 366 L 510 363 L 511 362 L 511 86 L 510 85 L 510 83 L 509 82 L 509 80 L 507 78 L 507 77 L 500 70 L 499 70 L 498 69 L 497 69 L 496 68 L 494 68 L 493 67 L 18 67 L 17 68 L 15 68 L 14 69 L 13 69 L 12 70 L 11 70 Z M 223 402 L 224 401 L 224 396 L 225 395 L 225 390 L 226 389 L 226 384 L 228 382 L 283 382 L 285 384 L 285 389 L 286 390 L 286 395 L 287 396 L 287 401 L 288 402 L 288 403 L 287 404 L 224 404 L 223 403 Z M 15 86 L 19 82 L 20 82 L 21 81 L 490 81 L 491 82 L 492 82 L 496 86 L 496 87 L 497 88 L 497 360 L 496 361 L 496 362 L 495 363 L 495 364 L 493 366 L 492 366 L 491 367 L 490 367 L 489 368 L 22 368 L 21 367 L 20 367 L 19 366 L 18 366 L 16 364 L 16 363 L 15 362 L 15 361 L 14 360 L 14 88 L 15 87 Z M 266 269 L 263 269 L 262 270 L 261 270 L 260 271 L 259 271 L 259 272 L 258 273 L 258 280 L 259 281 L 259 284 L 260 285 L 260 287 L 261 288 L 261 290 L 262 291 L 262 304 L 261 305 L 261 307 L 260 308 L 260 309 L 259 310 L 259 311 L 258 312 L 258 313 L 256 315 L 256 316 L 255 317 L 255 318 L 254 319 L 254 322 L 255 323 L 255 324 L 256 325 L 256 326 L 257 326 L 258 327 L 259 327 L 260 328 L 262 328 L 263 327 L 265 327 L 267 325 L 267 324 L 269 322 L 269 321 L 270 320 L 270 319 L 271 318 L 271 317 L 273 315 L 273 313 L 274 312 L 274 310 L 275 309 L 275 306 L 276 305 L 276 290 L 275 289 L 275 286 L 274 285 L 274 282 L 273 281 L 273 279 L 272 278 L 272 275 L 271 274 L 271 273 L 268 270 L 267 270 Z M 256 196 L 250 196 L 247 199 L 247 200 L 246 201 L 246 204 L 247 205 L 247 207 L 248 208 L 248 220 L 247 221 L 247 222 L 246 223 L 246 224 L 245 225 L 245 226 L 243 228 L 243 229 L 234 238 L 234 239 L 233 240 L 233 245 L 237 249 L 242 249 L 243 248 L 244 248 L 254 238 L 254 237 L 257 234 L 257 233 L 258 232 L 258 231 L 259 230 L 259 229 L 260 228 L 260 226 L 261 225 L 261 223 L 262 222 L 262 206 L 261 205 L 261 203 L 260 202 L 260 200 L 259 199 L 259 198 L 258 197 L 257 197 Z M 379 118 L 378 119 L 374 119 L 373 120 L 370 120 L 369 121 L 368 121 L 367 122 L 366 122 L 365 123 L 364 123 L 363 124 L 362 124 L 360 126 L 359 126 L 351 134 L 351 135 L 348 138 L 348 139 L 346 141 L 346 142 L 343 145 L 343 146 L 340 149 L 340 150 L 338 152 L 338 153 L 335 156 L 335 157 L 334 158 L 334 164 L 335 165 L 335 166 L 336 166 L 338 168 L 343 168 L 344 167 L 345 167 L 346 166 L 346 165 L 349 162 L 349 161 L 351 159 L 351 158 L 354 155 L 354 154 L 357 151 L 357 150 L 359 148 L 359 147 L 362 144 L 362 143 L 368 137 L 369 137 L 371 135 L 372 135 L 373 134 L 375 134 L 376 133 L 379 133 L 380 132 L 386 132 L 387 133 L 390 133 L 391 134 L 394 134 L 395 135 L 397 135 L 398 136 L 400 136 L 401 137 L 404 137 L 405 138 L 407 138 L 408 139 L 411 139 L 412 140 L 414 140 L 415 141 L 417 141 L 418 142 L 421 142 L 422 143 L 423 143 L 424 144 L 422 146 L 421 146 L 418 149 L 417 149 L 413 153 L 412 153 L 409 156 L 408 156 L 405 159 L 404 159 L 401 162 L 400 162 L 396 166 L 395 166 L 392 169 L 391 169 L 388 172 L 387 172 L 384 175 L 383 175 L 379 179 L 378 179 L 375 182 L 374 182 L 371 185 L 370 185 L 366 189 L 365 189 L 362 192 L 361 192 L 358 195 L 357 195 L 354 198 L 353 198 L 349 202 L 348 202 L 345 205 L 344 205 L 341 208 L 340 208 L 336 212 L 335 212 L 332 215 L 331 215 L 328 218 L 327 218 L 324 221 L 323 221 L 321 223 L 320 223 L 319 224 L 318 224 L 317 225 L 313 225 L 312 226 L 309 226 L 308 225 L 304 225 L 303 224 L 301 224 L 299 222 L 298 222 L 292 216 L 293 215 L 295 215 L 296 214 L 299 214 L 300 213 L 302 213 L 303 212 L 305 212 L 306 211 L 307 211 L 308 210 L 309 210 L 310 209 L 311 209 L 314 206 L 315 206 L 323 198 L 323 197 L 326 194 L 326 192 L 327 191 L 327 189 L 326 188 L 326 187 L 325 186 L 325 185 L 324 184 L 323 184 L 322 183 L 318 183 L 317 184 L 316 184 L 312 188 L 312 189 L 306 195 L 305 195 L 303 197 L 302 197 L 301 198 L 300 198 L 299 199 L 298 199 L 297 200 L 295 200 L 294 201 L 285 201 L 284 202 L 281 202 L 280 203 L 279 203 L 275 207 L 275 209 L 274 210 L 274 217 L 275 218 L 275 219 L 289 233 L 290 233 L 292 235 L 293 235 L 294 236 L 295 236 L 296 237 L 298 237 L 299 238 L 301 238 L 302 239 L 307 239 L 308 240 L 312 240 L 313 239 L 319 239 L 320 238 L 322 238 L 323 237 L 324 238 L 324 248 L 325 249 L 325 253 L 326 254 L 326 257 L 327 258 L 327 260 L 328 261 L 328 262 L 329 263 L 329 264 L 330 265 L 330 266 L 332 268 L 332 269 L 335 272 L 335 273 L 338 276 L 339 276 L 343 280 L 344 280 L 345 281 L 346 281 L 347 282 L 348 282 L 349 283 L 350 283 L 351 284 L 352 284 L 353 285 L 356 285 L 357 286 L 361 286 L 362 287 L 371 287 L 372 286 L 376 286 L 377 285 L 379 285 L 380 284 L 382 284 L 383 283 L 384 283 L 385 282 L 386 282 L 387 281 L 388 281 L 390 279 L 391 279 L 399 271 L 399 270 L 401 268 L 401 267 L 403 265 L 403 264 L 404 263 L 404 262 L 405 261 L 405 259 L 406 258 L 406 256 L 407 255 L 407 252 L 408 251 L 408 235 L 407 234 L 407 231 L 406 230 L 406 227 L 405 226 L 405 225 L 404 224 L 404 223 L 403 222 L 403 221 L 402 220 L 402 219 L 400 217 L 400 216 L 391 207 L 390 207 L 388 205 L 387 205 L 386 204 L 385 204 L 384 203 L 383 203 L 382 202 L 381 202 L 380 201 L 378 201 L 376 199 L 379 196 L 388 196 L 389 197 L 395 197 L 396 198 L 398 198 L 399 199 L 402 199 L 403 200 L 404 200 L 405 201 L 406 201 L 407 202 L 408 202 L 409 203 L 410 203 L 411 204 L 412 204 L 413 205 L 414 205 L 417 208 L 418 208 L 429 219 L 429 220 L 431 222 L 431 223 L 433 225 L 433 226 L 434 227 L 434 228 L 435 229 L 435 230 L 436 231 L 436 232 L 437 233 L 437 235 L 438 236 L 438 238 L 439 239 L 439 243 L 440 244 L 440 263 L 439 264 L 439 267 L 438 268 L 438 270 L 437 271 L 437 273 L 436 274 L 436 275 L 434 277 L 434 278 L 433 279 L 433 280 L 423 290 L 422 290 L 420 292 L 419 292 L 418 293 L 417 293 L 416 294 L 415 294 L 414 295 L 413 295 L 412 296 L 411 296 L 410 297 L 408 297 L 407 298 L 404 298 L 403 299 L 400 299 L 399 300 L 394 300 L 393 301 L 373 301 L 372 300 L 366 300 L 365 299 L 361 299 L 360 298 L 357 298 L 356 297 L 353 297 L 352 296 L 350 296 L 349 295 L 347 295 L 346 294 L 344 294 L 343 293 L 341 293 L 340 292 L 339 292 L 338 291 L 337 291 L 336 290 L 330 290 L 329 291 L 328 291 L 327 292 L 327 293 L 326 294 L 326 299 L 327 300 L 327 301 L 329 303 L 330 303 L 331 304 L 333 304 L 334 305 L 335 305 L 336 306 L 338 306 L 339 307 L 340 307 L 341 308 L 343 308 L 344 309 L 347 309 L 348 310 L 350 310 L 351 311 L 354 311 L 355 312 L 358 312 L 359 313 L 364 313 L 365 314 L 372 314 L 373 315 L 392 315 L 393 314 L 400 314 L 401 313 L 405 313 L 406 312 L 409 312 L 410 311 L 412 311 L 413 310 L 415 310 L 416 309 L 417 309 L 418 308 L 420 308 L 421 307 L 422 307 L 423 306 L 424 306 L 426 304 L 427 304 L 428 303 L 429 303 L 431 301 L 432 301 L 444 289 L 444 288 L 446 286 L 446 285 L 447 284 L 447 283 L 448 282 L 448 281 L 449 280 L 449 279 L 450 278 L 450 277 L 451 276 L 451 274 L 452 273 L 452 270 L 453 269 L 453 266 L 454 265 L 454 243 L 453 242 L 453 238 L 452 237 L 452 234 L 451 233 L 451 231 L 450 230 L 450 228 L 449 227 L 449 226 L 448 225 L 448 223 L 447 222 L 447 221 L 445 219 L 445 218 L 444 217 L 444 216 L 442 214 L 442 213 L 440 211 L 440 210 L 427 197 L 426 197 L 423 194 L 422 194 L 420 192 L 419 192 L 418 191 L 417 191 L 416 190 L 415 190 L 414 189 L 413 189 L 412 188 L 410 188 L 409 187 L 408 187 L 407 186 L 405 186 L 404 185 L 401 185 L 400 184 L 398 184 L 397 183 L 400 180 L 401 180 L 404 177 L 405 177 L 408 174 L 409 174 L 413 170 L 414 170 L 417 167 L 418 167 L 422 163 L 423 163 L 426 160 L 427 160 L 430 157 L 431 157 L 434 154 L 435 154 L 438 151 L 439 151 L 442 148 L 442 147 L 443 146 L 443 145 L 444 144 L 444 140 L 443 139 L 443 137 L 439 133 L 438 133 L 437 132 L 434 132 L 433 131 L 431 131 L 430 130 L 428 130 L 427 129 L 424 129 L 423 128 L 421 128 L 420 127 L 417 127 L 416 126 L 414 126 L 413 125 L 410 125 L 409 124 L 407 124 L 406 123 L 404 123 L 403 122 L 400 122 L 399 121 L 397 121 L 396 120 L 393 120 L 392 119 L 388 119 L 387 118 Z M 351 267 L 352 266 L 353 266 L 355 264 L 356 264 L 357 263 L 359 263 L 360 262 L 372 262 L 373 263 L 375 263 L 376 264 L 377 264 L 378 265 L 379 265 L 381 267 L 381 268 L 380 269 L 379 269 L 378 270 L 377 270 L 376 271 L 375 271 L 374 272 L 371 272 L 370 273 L 363 273 L 362 272 L 359 272 L 358 271 L 356 271 L 355 270 L 354 270 L 353 269 L 352 269 L 351 268 Z M 339 236 L 340 235 L 343 238 L 344 238 L 346 240 L 348 240 L 349 241 L 353 241 L 354 242 L 355 242 L 356 241 L 358 241 L 359 242 L 359 244 L 360 245 L 360 246 L 361 247 L 360 248 L 359 248 L 358 249 L 355 249 L 354 250 L 352 250 L 351 251 L 350 251 L 349 252 L 348 252 L 347 253 L 346 253 L 344 255 L 343 255 L 342 256 L 340 254 L 340 252 L 339 251 L 339 248 L 338 247 L 338 239 L 339 238 Z M 349 221 L 350 220 L 350 219 L 352 217 L 357 217 L 360 220 L 360 224 L 357 227 L 356 227 L 355 228 L 354 227 L 352 227 L 350 225 L 350 224 L 349 223 Z M 374 214 L 375 215 L 377 215 L 378 216 L 379 216 L 381 218 L 382 218 L 389 225 L 389 226 L 391 228 L 391 229 L 392 230 L 392 232 L 393 233 L 393 235 L 394 236 L 394 250 L 393 251 L 393 253 L 392 254 L 392 255 L 391 256 L 390 256 L 388 254 L 387 254 L 385 252 L 384 252 L 383 251 L 381 251 L 380 250 L 379 250 L 378 249 L 375 249 L 374 248 L 373 248 L 372 247 L 373 246 L 373 240 L 369 236 L 369 235 L 372 232 L 372 231 L 373 230 L 373 228 L 374 227 L 374 217 L 373 216 L 373 215 Z M 124 118 L 123 119 L 119 119 L 118 120 L 115 120 L 114 121 L 112 121 L 111 122 L 108 122 L 107 123 L 105 123 L 104 124 L 102 124 L 101 125 L 98 125 L 97 126 L 95 126 L 94 127 L 91 127 L 90 128 L 88 128 L 87 129 L 85 129 L 84 130 L 81 130 L 80 131 L 78 131 L 77 132 L 74 132 L 73 133 L 72 133 L 68 137 L 68 139 L 67 140 L 67 144 L 68 145 L 68 146 L 69 147 L 69 148 L 71 150 L 72 150 L 76 154 L 77 154 L 80 157 L 81 157 L 84 160 L 85 160 L 88 163 L 89 163 L 93 167 L 94 167 L 97 170 L 98 170 L 101 173 L 102 173 L 105 176 L 106 176 L 110 180 L 111 180 L 114 183 L 113 184 L 111 184 L 110 185 L 107 185 L 106 186 L 104 186 L 103 187 L 102 187 L 101 188 L 99 188 L 98 189 L 97 189 L 96 190 L 95 190 L 94 191 L 93 191 L 91 193 L 90 193 L 88 195 L 87 195 L 85 197 L 84 197 L 71 210 L 71 211 L 69 213 L 69 214 L 67 216 L 67 217 L 66 218 L 66 219 L 65 220 L 65 221 L 63 223 L 63 225 L 62 226 L 62 227 L 61 228 L 61 230 L 60 231 L 60 233 L 59 234 L 59 237 L 58 238 L 58 242 L 57 243 L 57 265 L 58 266 L 58 269 L 59 270 L 59 273 L 60 274 L 60 276 L 61 277 L 61 278 L 62 279 L 62 280 L 63 281 L 63 282 L 64 283 L 64 284 L 65 285 L 65 286 L 67 288 L 67 289 L 72 294 L 72 295 L 73 296 L 74 296 L 79 301 L 80 301 L 82 303 L 83 303 L 84 304 L 85 304 L 87 306 L 88 306 L 89 307 L 90 307 L 91 308 L 93 308 L 94 309 L 95 309 L 96 310 L 98 310 L 99 311 L 101 311 L 102 312 L 105 312 L 106 313 L 110 313 L 111 314 L 118 314 L 119 315 L 138 315 L 139 314 L 146 314 L 147 313 L 152 313 L 153 312 L 156 312 L 157 311 L 160 311 L 161 310 L 164 310 L 165 309 L 167 309 L 168 308 L 170 308 L 171 307 L 172 307 L 173 306 L 175 306 L 176 305 L 178 305 L 179 304 L 180 304 L 181 303 L 182 303 L 184 301 L 184 300 L 185 299 L 185 294 L 184 293 L 184 292 L 183 291 L 182 291 L 181 290 L 175 290 L 174 291 L 173 291 L 172 292 L 171 292 L 170 293 L 168 293 L 167 294 L 165 294 L 164 295 L 162 295 L 161 296 L 159 296 L 158 297 L 155 297 L 154 298 L 151 298 L 150 299 L 146 299 L 145 300 L 139 300 L 138 301 L 118 301 L 117 300 L 112 300 L 111 299 L 108 299 L 107 298 L 104 298 L 103 297 L 102 297 L 101 296 L 99 296 L 98 295 L 97 295 L 96 294 L 95 294 L 94 293 L 93 293 L 92 292 L 91 292 L 89 290 L 88 290 L 78 280 L 78 279 L 77 278 L 77 277 L 75 275 L 75 274 L 74 273 L 74 271 L 73 270 L 73 268 L 72 267 L 72 264 L 71 263 L 71 244 L 72 243 L 72 239 L 73 238 L 73 236 L 74 235 L 74 233 L 75 232 L 75 231 L 76 230 L 76 229 L 77 228 L 77 227 L 78 226 L 78 225 L 80 223 L 80 222 L 82 220 L 82 219 L 93 208 L 94 208 L 96 206 L 97 206 L 99 204 L 100 204 L 101 203 L 102 203 L 103 202 L 104 202 L 105 201 L 106 201 L 107 200 L 108 200 L 109 199 L 112 199 L 113 198 L 115 198 L 116 197 L 122 197 L 123 196 L 132 196 L 135 199 L 133 201 L 131 201 L 130 202 L 129 202 L 128 203 L 127 203 L 126 204 L 125 204 L 124 205 L 123 205 L 121 207 L 120 207 L 111 216 L 111 217 L 109 219 L 109 220 L 108 221 L 108 222 L 107 223 L 107 224 L 106 225 L 106 227 L 105 228 L 105 230 L 104 231 L 104 234 L 103 235 L 103 251 L 104 252 L 104 255 L 105 256 L 105 258 L 106 259 L 106 261 L 107 262 L 107 263 L 108 264 L 108 265 L 110 267 L 110 268 L 112 270 L 112 271 L 119 278 L 120 278 L 122 280 L 123 280 L 125 282 L 126 282 L 127 283 L 128 283 L 129 284 L 131 284 L 132 285 L 134 285 L 135 286 L 140 286 L 141 287 L 149 287 L 150 286 L 154 286 L 155 285 L 158 285 L 159 284 L 160 284 L 161 283 L 163 283 L 165 281 L 166 281 L 167 280 L 168 280 L 171 277 L 172 277 L 176 273 L 176 272 L 179 269 L 179 268 L 181 266 L 181 265 L 182 264 L 182 263 L 183 262 L 183 261 L 184 260 L 184 258 L 185 257 L 185 254 L 186 253 L 186 249 L 187 248 L 187 238 L 188 237 L 189 238 L 191 238 L 192 239 L 198 239 L 199 240 L 203 240 L 204 239 L 209 239 L 210 238 L 212 238 L 213 237 L 215 237 L 216 236 L 217 236 L 218 235 L 219 235 L 221 233 L 222 233 L 226 229 L 227 229 L 227 228 L 236 219 L 236 218 L 237 217 L 237 210 L 236 209 L 236 207 L 232 203 L 231 203 L 230 202 L 227 202 L 226 201 L 217 201 L 216 200 L 214 200 L 213 199 L 212 199 L 211 198 L 210 198 L 209 197 L 208 197 L 206 195 L 205 195 L 199 189 L 199 188 L 196 185 L 196 184 L 193 181 L 193 180 L 191 178 L 191 177 L 188 174 L 188 173 L 186 171 L 186 170 L 183 167 L 183 166 L 181 164 L 181 163 L 178 160 L 178 159 L 176 157 L 176 156 L 173 153 L 173 152 L 171 150 L 171 149 L 168 146 L 168 145 L 166 143 L 166 142 L 163 139 L 163 138 L 160 135 L 160 134 L 151 125 L 150 125 L 149 124 L 148 124 L 147 123 L 146 123 L 145 122 L 144 122 L 143 121 L 142 121 L 141 120 L 138 120 L 137 119 L 133 119 L 132 118 Z M 130 267 L 132 265 L 133 265 L 134 264 L 135 264 L 136 263 L 138 263 L 139 262 L 151 262 L 152 263 L 154 263 L 155 264 L 156 264 L 158 266 L 159 266 L 160 267 L 160 268 L 159 269 L 158 269 L 157 270 L 156 270 L 155 271 L 153 271 L 152 272 L 149 272 L 148 273 L 141 273 L 140 272 L 137 272 L 136 271 L 135 271 L 134 270 L 133 270 L 132 269 L 131 269 L 130 268 Z M 117 236 L 118 235 L 120 237 L 121 237 L 123 239 L 124 239 L 125 240 L 126 240 L 127 241 L 131 241 L 132 242 L 133 242 L 134 241 L 137 241 L 138 242 L 138 246 L 139 247 L 138 248 L 137 248 L 136 249 L 133 249 L 132 250 L 131 250 L 130 251 L 128 251 L 127 252 L 126 252 L 124 254 L 123 254 L 121 256 L 120 256 L 119 255 L 119 254 L 118 253 L 118 251 L 117 250 Z M 131 217 L 136 217 L 138 219 L 138 220 L 139 221 L 139 223 L 138 224 L 138 225 L 136 227 L 134 227 L 133 228 L 132 227 L 131 227 L 128 224 L 128 220 Z M 152 214 L 153 214 L 154 215 L 155 215 L 156 216 L 157 216 L 158 217 L 159 217 L 161 219 L 162 219 L 166 223 L 166 224 L 168 226 L 168 227 L 170 229 L 170 231 L 171 232 L 171 233 L 172 234 L 172 238 L 173 239 L 173 247 L 172 248 L 172 251 L 171 252 L 171 254 L 169 256 L 168 255 L 167 255 L 165 253 L 164 253 L 163 252 L 162 252 L 161 251 L 160 251 L 159 250 L 157 250 L 156 249 L 153 249 L 152 248 L 151 248 L 150 247 L 151 246 L 151 245 L 152 244 L 152 242 L 151 241 L 151 239 L 149 237 L 148 237 L 147 236 L 149 234 L 149 233 L 151 231 L 151 229 L 152 228 L 152 225 L 153 224 L 153 220 L 152 219 L 152 216 L 151 215 Z M 87 144 L 88 143 L 89 143 L 90 142 L 93 142 L 94 141 L 96 141 L 97 140 L 99 140 L 100 139 L 103 139 L 104 138 L 106 138 L 107 137 L 110 137 L 111 136 L 113 136 L 114 135 L 116 135 L 117 134 L 120 134 L 121 133 L 124 133 L 125 132 L 131 132 L 132 133 L 135 133 L 136 134 L 138 134 L 139 135 L 140 135 L 142 137 L 143 137 L 149 143 L 149 144 L 152 147 L 152 148 L 154 150 L 154 151 L 157 154 L 157 155 L 160 158 L 160 159 L 162 161 L 162 162 L 165 165 L 165 166 L 167 168 L 167 169 L 170 172 L 170 173 L 172 175 L 172 176 L 175 179 L 175 180 L 177 182 L 177 183 L 180 186 L 180 187 L 182 189 L 182 190 L 185 193 L 185 194 L 188 197 L 188 198 L 196 206 L 197 206 L 199 208 L 200 208 L 202 210 L 203 210 L 204 211 L 205 211 L 206 212 L 208 212 L 209 213 L 211 213 L 212 214 L 215 214 L 216 215 L 218 215 L 219 216 L 213 222 L 212 222 L 210 224 L 208 224 L 207 225 L 203 225 L 202 226 L 199 226 L 198 225 L 194 225 L 193 224 L 192 224 L 191 223 L 190 223 L 188 221 L 187 221 L 184 218 L 183 218 L 180 215 L 179 215 L 175 211 L 174 211 L 171 208 L 170 208 L 167 205 L 166 205 L 163 202 L 162 202 L 158 198 L 157 198 L 154 195 L 153 195 L 150 192 L 149 192 L 146 189 L 145 189 L 141 185 L 140 185 L 137 182 L 136 182 L 132 178 L 131 178 L 128 175 L 127 175 L 124 172 L 123 172 L 120 169 L 119 169 L 115 165 L 114 165 L 111 162 L 110 162 L 107 159 L 106 159 L 103 156 L 102 156 L 98 152 L 97 152 L 94 149 L 93 149 L 90 146 L 89 146 Z M 26 96 L 26 97 L 25 98 L 25 351 L 26 352 L 26 353 L 29 356 L 31 356 L 32 357 L 479 357 L 480 356 L 482 356 L 485 353 L 485 352 L 486 351 L 486 98 L 485 97 L 485 96 L 481 92 L 78 92 L 77 93 L 76 93 L 74 95 L 74 97 L 73 98 L 73 100 L 74 101 L 74 102 L 77 105 L 78 105 L 79 106 L 471 106 L 472 107 L 472 342 L 471 343 L 40 343 L 39 342 L 39 107 L 40 106 L 47 106 L 48 105 L 49 105 L 52 102 L 52 96 L 51 95 L 51 94 L 50 93 L 49 93 L 48 92 L 30 92 Z" fill="#F26542" fill-rule="evenodd" clip-rule="evenodd"/>
</svg>
